# xmcd
#
# Track frame offsets:
#	225
#	18877
#	38435
#	59461
#	79719
#	101610
#	117705
#	136428
#	156238
#	176808
#	196628
#	214379
#	232903
#	255448
#	274339
#	292712
#	312456
#
# Disc length: 4236 seconds
#
# Revision: 0
# Processed by: cddbd v1.4PL0 Copyright (c) Steve Scherf et al.
# Submitted via: EasyCDDAExtractor 4.6.9.1
#
DISCID=ec108911
DTITLE=Electric Lights Orchestra - Best Ballads
DYEAR=1900
DGENRE=Blues
TTITLE0=Ticket To The Moon
TTITLE1=Midnight Blue
TTITLE2=Don't Walk Away
TTITLE3=Getting To The Point
TTITLE4=Power Of A Million Lights
TTITLE5=The Light Go Down
TTITLE6=It's Over
TTITLE7=Can't Get It Out Of My Heart
TTITLE8=Telephone Line
TTITLE9=Blue Bird Is Dead
TTITLE10=Rain Is Falling
TTITLE11=Strange Magic
TTITLE12=Mr. Radio
TTITLE13=Washing
TTITLE14=21st Century Man
TTITLE15=Train Of Gold
TTITLE16=Blue Violin
EXTD=
EXTT0=
EXTT1=
EXTT2=
EXTT3=
EXTT4=
EXTT5=
EXTT6=
EXTT7=
EXTT8=
EXTT9=
EXTT10=
EXTT11=
EXTT12=
EXTT13=
EXTT14=
EXTT15=
EXTT16=
PLAYORDER=
